<svg xmlns="http://www.w3.org/2000/svg" width="375" viewBox="0 0 375 375" height="375" version="1.0"><defs><clipPath id="a"><path d="M 71.558594 30.054688 L 303.308594 30.054688 L 303.308594 236.304688 L 71.558594 236.304688 Z M 71.558594 30.054688"/></clipPath></defs><g clip-path="url(#a)"><path fill="#38B6FF" d="M 176.269531 236.304688 L 175.980469 236.304688 L 175.980469 99.070312 C 185.542969 95.628906 217.242188 105.226562 225.371094 130.601562 C 235.945312 178.558594 181.355469 199.421875 176.269531 236.304688 Z M 178.339844 236.304688 L 227.578125 236.304688 L 227.578125 181.304688 C 216.96875 198.257812 187.984375 211.699219 178.339844 236.304688 Z M 274.476562 46.21875 C 272.421875 43.695312 270.113281 41.425781 267.550781 39.414062 C 264.988281 37.402344 262.238281 35.699219 259.292969 34.300781 C 256.351562 32.902344 253.292969 31.84375 250.113281 31.128906 C 246.933594 30.410156 243.714844 30.054688 240.457031 30.054688 L 71.59375 30.054688 L 96.226562 63.671875 C 97.242188 65.058594 98.332031 66.378906 99.503906 67.632812 C 100.671875 68.890625 101.914062 70.074219 103.222656 71.183594 C 104.53125 72.292969 105.902344 73.324219 107.332031 74.273438 C 108.761719 75.222656 110.242188 76.085938 111.773438 76.863281 C 113.304688 77.640625 114.878906 78.324219 116.488281 78.914062 C 118.101562 79.507812 119.742188 80 121.414062 80.402344 C 123.082031 80.800781 124.769531 81.101562 126.476562 81.300781 C 128.183594 81.5 129.894531 81.601562 131.609375 81.601562 L 176.070312 81.601562 C 207.015625 81.632812 223.9375 97.296875 227.59375 118.621094 L 227.59375 81.601562 L 303.273438 81.601562 Z M 274.476562 46.21875"/></g><g fill="#38B6FF"><g><g><path d="M 22.5 -24.84375 L 21.484375 -18.765625 L 14.203125 -18.765625 L 14.203125 0 L 7.203125 0 L 7.203125 -18.765625 L -0.5625 -18.765625 L -0.5625 -24.84375 Z M 22.5 -24.84375" transform="translate(47.56 299.558)"/></g></g></g><g fill="#38B6FF"><g><g><path d="M 2.09375 0 L 2.09375 -24.84375 L 9.09375 -24.84375 L 9.09375 0 Z M 2.09375 0" transform="translate(77.2 299.558)"/></g></g></g><g fill="#38B6FF"><g><g><path d="M 2.171875 0 L 2.90625 -24.84375 L 8.609375 -24.84375 L 16.9375 -8.640625 L 25.125 -24.84375 L 30.828125 -24.84375 L 31.359375 0 L 24.609375 0 L 24.390625 -10.390625 L 19.078125 0 L 14.171875 0 L 8.890625 -10.21875 L 8.578125 0 Z M 2.171875 0" transform="translate(96.657 299.558)"/></g></g></g><g fill="#38B6FF"><g><g><path d="M 20.234375 -18.859375 L 9 -18.859375 L 9 -15.46875 L 19.3125 -15.46875 L 19.3125 -9.484375 L 9 -9.484375 L 9 -5.984375 L 20.515625 -5.984375 L 20.09375 0 L 2.09375 0 L 2.09375 -24.84375 L 20.234375 -24.84375 Z M 20.234375 -18.859375" transform="translate(138.475 299.558)"/></g></g></g><g fill="#38B6FF"><g><g><path d="M 22.5 -24.84375 L 21.484375 -18.765625 L 14.203125 -18.765625 L 14.203125 0 L 7.203125 0 L 7.203125 -18.765625 L -0.5625 -18.765625 L -0.5625 -24.84375 Z M 22.5 -24.84375" transform="translate(184.983 299.558)"/></g></g></g><g fill="#38B6FF"><g><g><path d="M -1.359375 0 L 9.59375 -24.84375 L 15.40625 -24.84375 L 25.96875 0 L 18.90625 0 L 17.15625 -4.4375 L 7.53125 -4.4375 L 5.703125 0 Z M 9.90625 -10.21875 L 14.84375 -10.21875 L 12.421875 -16.3125 Z M 9.90625 -10.21875" transform="translate(214.623 299.558)"/></g></g></g><g fill="#38B6FF"><g><g><path d="M 2.09375 0 L 2.09375 -24.84375 L 12.078125 -24.84375 C 15.335938 -24.84375 17.84375 -24.234375 19.59375 -23.015625 C 21.34375 -21.804688 22.21875 -20.070312 22.21875 -17.8125 C 22.21875 -16.738281 21.992188 -15.753906 21.546875 -14.859375 C 21.109375 -13.960938 20.503906 -13.222656 19.734375 -12.640625 C 20.617188 -12.171875 21.347656 -11.492188 21.921875 -10.609375 C 22.492188 -9.722656 22.78125 -8.671875 22.78125 -7.453125 C 22.78125 -5.984375 22.359375 -4.6875 21.515625 -3.5625 C 20.679688 -2.445312 19.507812 -1.570312 18 -0.9375 C 16.5 -0.3125 14.742188 0 12.734375 0 Z M 12.390625 -19.21875 L 8.953125 -19.21875 L 8.953125 -15.328125 L 12.359375 -15.328125 C 13.378906 -15.328125 14.125 -15.492188 14.59375 -15.828125 C 15.0625 -16.171875 15.296875 -16.660156 15.296875 -17.296875 C 15.296875 -18.578125 14.328125 -19.21875 12.390625 -19.21875 Z M 8.953125 -5.640625 L 12.984375 -5.640625 C 13.867188 -5.640625 14.566406 -5.8125 15.078125 -6.15625 C 15.597656 -6.507812 15.859375 -7.035156 15.859375 -7.734375 C 15.859375 -8.410156 15.632812 -8.898438 15.1875 -9.203125 C 14.75 -9.503906 14.015625 -9.65625 12.984375 -9.65625 L 8.953125 -9.65625 Z M 8.953125 -5.640625" transform="translate(247.623 299.558)"/></g></g></g><g fill="#38B6FF"><g><g><path d="M 2.09375 0 L 2.09375 -24.84375 L 9.09375 -24.84375 L 9.09375 -6.09375 L 19.453125 -6.09375 L 19.046875 0 Z M 2.09375 0" transform="translate(279.047 299.558)"/></g></g></g><g fill="#38B6FF"><g><g><path d="M 20.234375 -18.859375 L 9 -18.859375 L 9 -15.46875 L 19.3125 -15.46875 L 19.3125 -9.484375 L 9 -9.484375 L 9 -5.984375 L 20.515625 -5.984375 L 20.09375 0 L 2.09375 0 L 2.09375 -24.84375 L 20.234375 -24.84375 Z M 20.234375 -18.859375" transform="translate(306.623 299.558)"/></g></g></g></svg>