<svg xmlns="http://www.w3.org/2000/svg" width="375" viewBox="0 0 375 375" height="375" version="1.0"><defs><clipPath id="a"><path d="M 7.429688 15.734375 L 374.929688 15.734375 L 374.929688 343.484375 L 7.429688 343.484375 Z M 7.429688 15.734375"/></clipPath><clipPath id="b"><path d="M 0 37.5 L 365.25 37.5 L 365.25 363 L 0 363 Z M 0 37.5"/></clipPath></defs><g clip-path="url(#a)"><path fill="#38B6FF" d="M 173.476562 343.484375 L 173.015625 343.484375 L 173.015625 125.410156 C 188.179688 119.941406 238.449219 135.191406 251.34375 175.515625 C 268.109375 251.722656 181.539062 284.878906 173.476562 343.484375 Z M 176.761719 343.484375 L 254.839844 343.484375 L 254.839844 256.085938 C 238.019531 283.03125 192.050781 304.386719 176.761719 343.484375 Z M 329.210938 41.425781 C 327.585938 39.425781 325.855469 37.519531 324.019531 35.714844 C 322.183594 33.90625 320.253906 32.203125 318.230469 30.613281 C 316.203125 29.019531 314.097656 27.542969 311.910156 26.183594 C 309.71875 24.824219 307.460938 23.59375 305.136719 22.484375 C 302.808594 21.378906 300.429688 20.402344 297.996094 19.558594 C 295.5625 18.71875 293.089844 18.011719 290.578125 17.445312 C 288.0625 16.875 285.527344 16.449219 282.96875 16.164062 C 280.40625 15.878906 277.839844 15.734375 275.265625 15.734375 L 7.480469 15.734375 L 46.546875 69.160156 C 48.15625 71.359375 49.886719 73.457031 51.742188 75.453125 C 53.597656 77.449219 55.5625 79.332031 57.640625 81.097656 C 59.714844 82.863281 61.886719 84.5 64.15625 86.007812 C 66.421875 87.515625 68.769531 88.890625 71.199219 90.121094 C 73.628906 91.355469 76.121094 92.441406 78.679688 93.382812 C 81.234375 94.324219 83.835938 95.109375 86.484375 95.742188 C 89.132812 96.378906 91.8125 96.855469 94.515625 97.171875 C 97.21875 97.492188 99.933594 97.652344 102.65625 97.652344 L 173.15625 97.652344 C 222.234375 97.703125 249.066406 122.59375 254.867188 156.476562 L 254.867188 97.652344 L 374.875 97.652344 Z M 329.210938 41.425781"/></g><g clip-path="url(#b)"><path fill="#004AAD" d="M 165.03125 363 L 164.574219 363 L 164.574219 146.421875 C 179.648438 140.988281 229.605469 156.136719 242.421875 196.183594 C 259.085938 271.867188 173.046875 304.796875 165.03125 363 Z M 168.296875 363 L 245.898438 363 L 245.898438 276.199219 C 229.179688 302.960938 183.492188 324.167969 168.296875 363 Z M 319.8125 63.011719 C 318.199219 61.027344 316.480469 59.136719 314.65625 57.339844 C 312.828125 55.542969 310.910156 53.855469 308.898438 52.273438 C 306.886719 50.691406 304.792969 49.226562 302.617188 47.878906 C 300.441406 46.527344 298.199219 45.304688 295.886719 44.203125 C 293.574219 43.101562 291.210938 42.136719 288.789062 41.296875 C 286.371094 40.460938 283.914062 39.761719 281.414062 39.195312 C 278.917969 38.632812 276.398438 38.210938 273.851562 37.925781 C 271.308594 37.640625 268.757812 37.5 266.195312 37.5 L 0.0507812 37.5 L 38.878906 90.558594 C 40.476562 92.742188 42.199219 94.828125 44.042969 96.808594 C 45.886719 98.792969 47.839844 100.660156 49.902344 102.410156 C 51.964844 104.164062 54.125 105.789062 56.378906 107.289062 C 58.632812 108.789062 60.96875 110.152344 63.382812 111.375 C 65.796875 112.601562 68.273438 113.679688 70.8125 114.613281 C 73.355469 115.546875 75.941406 116.328125 78.574219 116.957031 C 81.207031 117.589844 83.867188 118.0625 86.554688 118.378906 C 89.242188 118.695312 91.9375 118.855469 94.644531 118.855469 L 164.714844 118.855469 C 213.492188 118.902344 240.160156 143.625 245.925781 177.273438 L 245.925781 118.855469 L 365.199219 118.855469 Z M 319.8125 63.011719"/></g></svg>